<svg width="100" height="39" viewBox="0 0 100 39" fill="none" xmlns="http://www.w3.org/2000/svg">
<path d="M24.814 17.3949L26.2732 15.9356C26.2927 15.9162 26.3121 15.8968 26.3249 15.8774L26.3313 15.8839L24.814 17.3949Z" fill="white"/>
<path d="M29.6051 22.793C29.8763 23.4583 30.0055 24.1685 30.0055 24.8659C30.0055 25.5696 29.8763 26.2735 29.6051 26.9385C29.334 27.6036 28.9272 28.2299 28.3913 28.7593L19.7842 37.3858C19.2482 37.9218 18.6218 38.3285 17.9633 38.5933C17.2982 38.8645 16.5944 39 15.8906 39C15.1868 39 14.483 38.8645 13.8179 38.5933C13.1528 38.3222 12.5265 37.9153 11.9906 37.3858L10.8735 36.2688L1.74983 27.1451C1.24619 26.6415 0.832947 26.0538 0.535928 25.3952C0.238908 24.7367 0.0645696 24.007 0.0645696 23.245C0.0645696 23.2128 0.0645696 23.1806 0.0645696 23.1353L0 15.6711V15.6388C0.0516556 14.2183 0.665068 12.914 1.63361 11.9454L11.9647 1.6143C13.0366 0.54244 14.4571 -0.00640063 15.8583 5.6317e-05C16.5621 5.6317e-05 17.2659 0.129195 17.9309 0.400388C18.5961 0.67158 19.2223 1.07837 19.7583 1.6143L28.4235 10.2795C28.9595 10.8155 29.3662 11.4353 29.631 12.1004C29.9022 12.7655 30.0377 13.4693 30.0377 14.1731C30.0377 14.8769 29.9022 15.5807 29.6374 16.2458C29.3662 16.9108 28.9595 17.5372 28.4235 18.073L26.9643 19.5323L24.8076 21.689L19.7583 26.7383C19.2223 27.2743 18.5961 27.6811 17.9374 27.9458C17.2723 28.217 16.5621 28.3526 15.8648 28.3526C15.1674 28.3526 14.4571 28.217 13.7921 27.9458C13.127 27.6746 12.5007 27.2678 11.9712 26.7383L11.0737 25.8602L8.67815 23.4646C8.14222 22.9287 7.73544 22.3024 7.46424 21.6373C7.19951 20.9723 7.06391 20.2684 7.06391 19.5647C7.06391 18.8608 7.19951 18.1571 7.46424 17.492C7.73544 16.8268 8.14222 16.2006 8.67815 15.6646L11.9777 12.3651C12.5136 11.8292 13.1399 11.4224 13.7985 11.1512C14.4636 10.88 15.1674 10.7509 15.8712 10.7509C16.575 10.7509 17.2788 10.88 17.9438 11.1512C18.6089 11.4224 19.2352 11.8292 19.7712 12.3587L23.019 15.6065L20.8688 17.7567L17.621 14.5153C17.3756 14.2699 17.1045 14.0956 16.8011 13.9729C16.504 13.8502 16.1876 13.7921 15.8712 13.7921C15.5548 13.7921 15.2384 13.8502 14.9414 13.9729C14.6444 14.0956 14.3732 14.2699 14.1214 14.5153L10.8283 17.8213C10.583 18.0666 10.4086 18.3379 10.2859 18.6413C10.1632 18.9383 10.1051 19.2547 10.1051 19.5712C10.1051 19.8875 10.1697 20.2038 10.2859 20.5009C10.4086 20.7979 10.583 21.0691 10.8283 21.321L13.2239 23.7165L14.1149 24.6075C14.3603 24.8529 14.6315 25.0273 14.9285 25.15C15.2255 25.2725 15.5419 25.3306 15.8583 25.3306C16.1747 25.3306 16.4911 25.2725 16.7881 25.15C17.085 25.0273 17.3564 24.8464 17.6081 24.6075L18.2796 23.936L26.3314 15.8842L26.325 15.8777C26.5445 15.6453 26.7061 15.3934 26.8158 15.1158C26.9384 14.8188 26.9965 14.5024 26.9965 14.186C26.9965 13.8696 26.9384 13.5532 26.8158 13.2562C26.6931 12.9592 26.5187 12.688 26.2733 12.4362L17.6146 3.77737C17.3691 3.53201 17.0915 3.35768 16.7946 3.235C16.4975 3.11232 16.1811 3.0542 15.8583 3.0542C15.5419 3.0542 15.2255 3.11232 14.9285 3.235C14.6315 3.35768 14.3603 3.53847 14.1149 3.77737L3.78378 14.1085C3.32533 14.5669 3.06705 15.1481 3.04123 15.7421C3.04123 15.7421 3.04123 15.7421 3.04123 15.7486L3.10579 23.1547V23.245C3.10579 23.5486 3.17037 23.8456 3.30597 24.149C3.44157 24.4461 3.64172 24.7432 3.89354 24.9949L13.0172 34.1121L14.1343 35.2291C14.3796 35.4746 14.6508 35.6554 14.9479 35.7716C15.2449 35.8943 15.5613 35.9525 15.8777 35.9525C16.194 35.9525 16.5104 35.8879 16.8074 35.7716C17.1045 35.6489 17.3756 35.4746 17.6275 35.2291L26.2346 26.622C26.4801 26.3768 26.6542 26.1056 26.777 25.8021C26.8997 25.505 26.9578 25.1887 26.9578 24.8722C26.9578 24.5558 26.8997 24.2395 26.777 23.9425C26.7253 23.8197 26.6672 23.7035 26.5963 23.5937L28.7787 21.4113C29.1274 21.8374 29.4051 22.3024 29.6051 22.793Z" fill="white"/>
<path d="M52.2751 22.4317C52.0685 23.4777 51.7069 24.414 51.1646 25.2405C50.6352 26.0669 49.9829 26.7643 49.2211 27.3196C48.4656 27.8813 47.6262 28.3011 46.7157 28.598C45.7925 28.8821 44.8626 29.0371 43.9005 29.0371C42.5834 29.0371 41.3953 28.7918 40.3299 28.3139C39.2643 27.8297 38.3605 27.1711 37.5985 26.3381C36.8366 25.4987 36.249 24.5044 35.8357 23.355C35.4226 22.2057 35.2158 20.9595 35.2158 19.6165C35.2158 18.2734 35.4226 17.0272 35.8357 15.8779C36.249 14.7285 36.8431 13.7277 37.6114 12.8818C38.3798 12.036 39.3161 11.3644 40.4137 10.8931C41.5115 10.4088 42.7253 10.1699 44.0619 10.1699C45.0434 10.1699 45.9926 10.3184 46.8965 10.6348C47.8005 10.9448 48.6077 11.3903 49.3244 11.9585C50.0411 12.5202 50.6415 13.2111 51.1323 14.0118C51.539 14.6769 51.8361 15.413 52.0299 16.2265H48.1298C47.8909 15.4904 47.4712 14.877 46.8514 14.3863C46.0894 13.7858 45.1596 13.4823 44.0684 13.4823C43.442 13.4823 42.848 13.5986 42.2733 13.831C41.7051 14.0699 41.2015 14.4315 40.7689 14.9416C40.3299 15.4388 39.9812 16.0651 39.7293 16.827C39.4775 17.589 39.3419 18.4994 39.3419 19.5778C39.3419 20.6495 39.4775 21.5664 39.7293 22.3412C39.9812 23.1097 40.3299 23.7425 40.7689 24.2525C41.208 24.7498 41.7051 25.1242 42.2604 25.3567C42.8157 25.5957 43.3839 25.7054 43.9651 25.7054C44.4558 25.7054 44.9401 25.6473 45.4114 25.5375C45.8828 25.4278 46.3154 25.234 46.7222 24.9758C47.1161 24.7045 47.4712 24.3624 47.7618 23.9556C48.046 23.5423 48.259 23.0322 48.3945 22.4317H52.2751Z" fill="white"/>
<path d="M58.0867 28.6427C57.2732 28.3843 56.5693 28.0228 55.9753 27.5514C55.3812 27.08 54.9227 26.5182 54.5999 25.8597C54.2771 25.2011 54.1157 24.4585 54.1157 23.6321C54.1157 22.5151 54.4385 21.5852 55.0841 20.8491C55.7299 20.113 56.608 19.506 57.7122 19.0411C58.8163 18.5698 60.1012 18.2147 61.5669 17.9692C63.0327 17.724 64.5889 17.5108 66.2418 17.3301V16.9944C66.2418 16.2324 66.145 15.5931 65.9384 15.0701C65.7382 14.5471 65.4605 14.1339 65.1183 13.8304C64.7696 13.5269 64.3694 13.3138 63.9109 13.1782C63.4525 13.0426 62.981 12.9781 62.4839 12.9781C61.4766 12.9781 60.6372 13.2492 59.9528 13.7852C59.2683 14.3211 58.9068 15.1347 58.8615 16.2324H54.9422C55.0068 15.3155 55.2457 14.4761 55.6461 13.7206C56.0462 12.9587 56.5822 12.3065 57.2538 11.7577C57.9253 11.2089 58.713 10.7891 59.617 10.4857C60.521 10.1822 61.5218 10.0337 62.6131 10.0337C63.6849 10.0337 64.6922 10.1693 65.6284 10.434C66.5648 10.7052 67.3847 11.1378 68.0757 11.7383C68.7664 12.3388 69.3024 13.1395 69.6834 14.1339C70.0643 15.1282 70.2451 16.3421 70.2194 17.7691C70.2194 17.9951 70.2129 18.2857 70.2 18.6408C70.187 18.9959 70.1805 19.3898 70.1805 19.8159C70.1805 20.2422 70.1741 20.6812 70.1613 21.1397C70.1483 21.5981 70.1418 22.0307 70.1418 22.431C70.1418 23.5675 70.187 24.691 70.2775 25.8016C70.3678 26.9058 70.5035 27.842 70.6777 28.5974H67.0231C66.9586 28.2164 66.894 27.8742 66.8359 27.5579C66.7778 27.2479 66.7326 26.7766 66.6873 26.1503C66.1063 27.1318 65.3056 27.8614 64.2918 28.3262C63.2781 28.7976 62.0965 29.0301 60.7599 29.0301C59.8043 29.0301 58.9003 28.9009 58.0867 28.6427ZM62.6969 20.5844C61.6897 20.7652 60.8632 20.9847 60.2174 21.2559C59.5718 21.5271 59.0939 21.8434 58.7906 22.2115C58.487 22.5795 58.3386 23.0187 58.3386 23.5351C58.3386 24.3166 58.642 24.9299 59.2426 25.3755C59.843 25.821 60.6502 26.047 61.6574 26.047C63.1297 26.047 64.2854 25.6724 65.1118 24.9235C65.9384 24.1744 66.3515 23.0315 66.3515 21.4884V20.113C64.9182 20.2486 63.6977 20.41 62.6969 20.5844Z" fill="white"/>
<path d="M83.1528 13.7341C82.4489 13.3854 81.5966 13.2175 80.5893 13.2175C79.7177 13.2175 78.9429 13.3983 78.2584 13.7534C77.5804 14.1086 77.2382 14.5928 77.2382 15.1933C77.2382 15.7938 77.4448 16.2652 77.8581 16.6009C78.2714 16.9367 78.8718 17.1821 79.6531 17.337L82.1972 17.8407C83.1141 18.0215 83.9598 18.2345 84.7412 18.48C85.5225 18.7252 86.207 19.0545 86.788 19.4678C87.3692 19.8811 87.8212 20.3912 88.144 20.9917C88.4668 21.5921 88.6283 22.3347 88.6283 23.2C88.6283 24.1362 88.4216 24.9691 88.0085 25.6987C87.5952 26.422 87.0399 27.0354 86.336 27.5261C85.6323 28.0168 84.8251 28.3914 83.9082 28.6496C82.9914 28.9078 82.0228 29.037 80.9896 29.037C79.8726 29.037 78.8653 28.8886 77.9549 28.585C77.0509 28.2817 76.2632 27.8684 75.5916 27.3453C74.9201 26.8222 74.3778 26.196 73.9645 25.4664C73.5512 24.7431 73.2865 23.9553 73.1768 23.1032H77.0639C77.2447 24.0394 77.6643 24.7625 78.3358 25.2662C79.0073 25.7698 79.9307 26.0217 81.1188 26.0217C82.1713 26.0217 83.0366 25.815 83.7145 25.4018C84.3925 24.9885 84.7348 24.4138 84.7348 23.6777C84.7348 22.9416 84.4377 22.3863 83.8437 22.0184C83.2496 21.6502 82.507 21.3791 81.616 21.1982L78.904 20.6624C78.1422 20.5075 77.4383 20.3007 76.7733 20.0425C76.1147 19.7843 75.54 19.4484 75.0493 19.0352C74.5586 18.6219 74.1711 18.1183 73.8934 17.5308C73.6158 16.9367 73.4738 16.2264 73.4738 15.3999C73.4738 14.5928 73.6739 13.8761 74.0743 13.2369C74.4746 12.5976 75.0105 12.0552 75.6821 11.5968C76.3537 11.1384 77.1284 10.7897 78.013 10.5443C78.8976 10.2989 79.8274 10.1763 80.8088 10.1763C81.6806 10.1763 82.5264 10.2796 83.3529 10.4927C84.1795 10.7057 84.9284 11.035 85.5999 11.4806C86.2714 11.9261 86.8396 12.4879 87.3111 13.1594C87.7825 13.8309 88.1053 14.6122 88.2796 15.5033H84.528C84.315 14.6639 83.8565 14.0827 83.1528 13.7341Z" fill="white"/>
<path d="M96.0148 13.8889V24.8787H99.6307V28.5979H95.0011C93.3547 28.5979 92.0244 27.2612 92.0244 25.6211V13.8889H89.4287V10.499H92.0244V6.60547H96.0148V10.499H99.6307V13.8889H96.0148Z" fill="white"/>
</svg>
