<svg width="100" height="40" viewBox="0 0 100 40" fill="none" xmlns="http://www.w3.org/2000/svg">
<path d="M24.9062 17.4598L26.3709 15.9951C26.3904 15.9757 26.4098 15.9562 26.4228 15.9368L26.4293 15.9432L24.9062 17.4598Z" fill="#082939"/>
<path d="M29.7148 22.8776C29.987 23.5451 30.1167 24.258 30.1167 24.9579C30.1167 25.6643 29.987 26.3708 29.7148 27.0383C29.4426 27.7058 29.0343 28.3345 28.4964 28.8659L19.8574 37.5244C19.3195 38.0623 18.6909 38.4706 18.0298 38.7363C17.3623 39.0085 16.6559 39.1446 15.9494 39.1446C15.243 39.1446 14.5366 39.0085 13.8691 38.7363C13.2016 38.4641 12.5729 38.0558 12.035 37.5244L10.9138 36.4032L1.75632 27.2457C1.25081 26.7402 0.836034 26.1504 0.537913 25.4894C0.239793 24.8283 0.0648088 24.096 0.0648088 23.3312C0.0648088 23.2988 0.0648088 23.2664 0.0648088 23.2211L0 15.7292V15.6968C0.0518471 14.271 0.667531 12.9618 1.63966 11.9897L12.0091 1.62028C13.0849 0.54445 14.5107 -0.00642436 15.917 5.65257e-05C16.6235 5.65257e-05 17.3299 0.129674 17.9974 0.401871C18.6649 0.674068 19.2936 1.08236 19.8315 1.62028L28.5288 10.3176C29.0668 10.8555 29.4751 11.4777 29.7408 12.1452C30.013 12.8128 30.1491 13.5192 30.1491 14.2256C30.1491 14.932 30.013 15.6384 29.7472 16.306C29.475 16.9735 29.0668 17.6021 28.5288 18.14L27.0642 19.6047L24.8995 21.7693L19.8315 26.8374C19.2936 27.3753 18.6649 27.7836 18.0039 28.0493C17.3364 28.3215 16.6235 28.4576 15.9235 28.4576C15.2236 28.4576 14.5107 28.3215 13.8432 28.0493C13.1756 27.7771 12.547 27.3688 12.0156 26.8374L11.1147 25.956L8.7103 23.5516C8.17239 23.0137 7.7641 22.385 7.4919 21.7175C7.22618 21.05 7.09008 20.3435 7.09008 19.6371C7.09008 18.9307 7.22618 18.2243 7.4919 17.5568C7.7641 16.8892 8.17239 16.2606 8.7103 15.7227L12.022 12.4109C12.5599 11.873 13.1886 11.4647 13.8496 11.1925C14.5172 10.9203 15.2236 10.7907 15.93 10.7907C16.6364 10.7907 17.3428 10.9203 18.0104 11.1925C18.6779 11.4647 19.3065 11.873 19.8445 12.4045L23.1043 15.6643L20.9462 17.8225L17.6863 14.5691C17.4401 14.3228 17.1679 14.1478 16.8633 14.0247C16.5651 13.9015 16.2476 13.8432 15.93 13.8432C15.6124 13.8432 15.2949 13.9015 14.9968 14.0247C14.6986 14.1478 14.4264 14.3228 14.1737 14.5691L10.8684 17.8873C10.6222 18.1336 10.4472 18.4058 10.324 18.7104C10.2009 19.0085 10.1426 19.326 10.1426 19.6436C10.1426 19.9612 10.2074 20.2787 10.324 20.5769C10.4472 20.875 10.6222 21.1472 10.8684 21.3999L13.2728 23.8043L14.1672 24.6987C14.4135 24.945 14.6857 25.12 14.9838 25.2431C15.2819 25.3662 15.5995 25.4246 15.917 25.4246C16.2346 25.4246 16.5522 25.3662 16.8503 25.2431C17.1484 25.12 17.4206 24.9385 17.6734 24.6987L18.3474 24.0247L26.429 15.943L26.4226 15.9365C26.6429 15.7032 26.8049 15.4505 26.9151 15.1718C27.0382 14.8737 27.0966 14.5561 27.0966 14.2386C27.0966 13.921 27.0382 13.6034 26.9151 13.3053C26.792 13.0072 26.617 12.735 26.3707 12.4822L17.6798 3.79137C17.4336 3.5451 17.1549 3.37012 16.8568 3.24698C16.5587 3.12384 16.2411 3.06551 15.917 3.06551C15.5995 3.06551 15.2819 3.12384 14.9838 3.24698C14.6857 3.37012 14.4135 3.55158 14.1672 3.79137L3.7978 14.1608C3.33765 14.6209 3.07842 15.2042 3.0525 15.8004C3.0525 15.8004 3.0525 15.8004 3.0525 15.8069L3.1173 23.2405V23.3312C3.1173 23.6358 3.18211 23.934 3.31821 24.2386C3.45431 24.5367 3.65522 24.8348 3.90797 25.0875L13.0655 34.2385L14.1866 35.3597C14.4329 35.606 14.7051 35.7875 15.0032 35.9041C15.3014 36.0273 15.6189 36.0856 15.9365 36.0856C16.2541 36.0856 16.5716 36.0208 16.8697 35.9041C17.1679 35.781 17.4401 35.606 17.6928 35.3597L26.3318 26.7207C26.5781 26.4745 26.7531 26.2023 26.8762 25.8977C26.9994 25.5995 27.0577 25.282 27.0577 24.9644C27.0577 24.6468 26.9994 24.3293 26.8762 24.0312C26.8244 23.908 26.766 23.7914 26.6948 23.6812L28.8853 21.4907C29.2353 21.9184 29.5139 22.385 29.7148 22.8776Z" fill="#082939"/>
<path d="M52.4692 22.5145C52.2618 23.5644 51.8988 24.5041 51.3545 25.3337C50.823 26.1632 50.1685 26.8631 49.4037 27.4205C48.6454 27.9843 47.8029 28.4056 46.8891 28.7037C45.9624 28.9889 45.0291 29.1444 44.0635 29.1444C42.7414 29.1444 41.5489 28.8981 40.4795 28.4186C39.4102 27.9325 38.5029 27.2714 37.7381 26.4354C36.9734 25.5929 36.3836 24.5948 35.9688 23.4412C35.5541 22.2876 35.3467 21.0368 35.3467 19.6888C35.3467 18.3408 35.5541 17.09 35.9688 15.9364C36.3836 14.7828 36.9799 13.7782 37.7511 12.9292C38.5223 12.0803 39.462 11.4062 40.5638 10.9331C41.6655 10.4471 42.8839 10.2073 44.2255 10.2073C45.2106 10.2073 46.1633 10.3563 47.0706 10.6739C47.9779 10.985 48.788 11.4322 49.5074 12.0025C50.2268 12.5663 50.8295 13.2598 51.3221 14.0634C51.7303 14.7309 52.0285 15.4698 52.2229 16.2863H48.3084C48.0686 15.5475 47.6474 14.9318 47.0252 14.4393C46.2605 13.8366 45.3272 13.532 44.232 13.532C43.6033 13.532 43.0071 13.6486 42.4303 13.8819C41.86 14.1217 41.3545 14.4847 40.9202 14.9966C40.4795 15.4957 40.1296 16.1243 39.8768 16.8891C39.6241 17.6538 39.488 18.5676 39.488 19.6499C39.488 20.7257 39.6241 21.646 39.8768 22.4237C40.1296 23.195 40.4795 23.8301 40.9202 24.3421C41.3609 24.8411 41.86 25.217 42.4173 25.4503C42.9747 25.6901 43.545 25.8003 44.1283 25.8003C44.6208 25.8003 45.1069 25.7419 45.58 25.6318C46.0531 25.5216 46.4873 25.3272 46.8956 25.0679C47.2909 24.7957 47.6474 24.4523 47.939 24.044C48.2242 23.6292 48.4381 23.1172 48.5742 22.5145H52.4692Z" fill="#082939"/>
<path d="M58.3021 28.7489C57.4856 28.4897 56.7791 28.1268 56.1829 27.6537C55.5867 27.1806 55.1265 26.6167 54.8025 25.9557C54.4784 25.2946 54.3164 24.5493 54.3164 23.7198C54.3164 22.5986 54.6405 21.6653 55.2885 20.9265C55.9366 20.1877 56.818 19.5785 57.9263 19.1119C59.0345 18.6388 60.3242 18.2823 61.7953 18.036C63.2665 17.7898 64.8284 17.5759 66.4875 17.3944V17.0574C66.4875 16.2927 66.3903 15.6511 66.1829 15.1261C65.982 14.6012 65.7033 14.1864 65.3598 13.8818C65.0099 13.5772 64.608 13.3633 64.1479 13.2272C63.6878 13.0911 63.2147 13.0263 62.7156 13.0263C61.7046 13.0263 60.8621 13.2985 60.1751 13.8364C59.4882 14.3744 59.1252 15.1909 59.0799 16.2927H55.146C55.2108 15.3724 55.4506 14.5299 55.8524 13.7716C56.2542 13.0069 56.7921 12.3523 57.4661 11.8014C58.1401 11.2506 58.9308 10.8293 59.8381 10.5247C60.7454 10.2201 61.75 10.071 62.8452 10.071C63.9211 10.071 64.9321 10.2071 65.8718 10.4729C66.8115 10.7451 67.6346 11.1793 68.3281 11.782C69.0215 12.3847 69.5594 13.1883 69.9418 14.1864C70.3242 15.1845 70.5056 16.4029 70.4797 17.8351C70.4797 18.062 70.4732 18.3536 70.4603 18.7101C70.4473 19.0665 70.4408 19.4618 70.4408 19.8896C70.4408 20.3173 70.4344 20.758 70.4214 21.2182C70.4084 21.6783 70.402 22.1125 70.402 22.5143C70.402 23.655 70.4473 24.7826 70.5381 25.8974C70.6288 27.0056 70.7649 27.9453 70.9399 28.7036H67.2717C67.2069 28.3212 67.1421 27.9777 67.0837 27.6602C67.0254 27.3491 66.9801 26.876 66.9347 26.2473C66.3514 27.2324 65.5478 27.9648 64.5303 28.4314C63.5128 28.9045 62.3268 29.1378 60.9852 29.1378C60.0261 29.1378 59.1187 29.0082 58.3021 28.7489ZM62.9295 20.6608C61.9185 20.8423 61.0889 21.0626 60.4408 21.3348C59.7928 21.607 59.3132 21.9246 59.0086 22.294C58.704 22.6634 58.5549 23.1041 58.5549 23.6226C58.5549 24.4068 58.8595 25.0224 59.4622 25.4696C60.0649 25.9168 60.8751 26.1436 61.8861 26.1436C63.3637 26.1436 64.5238 25.7677 65.3533 25.016C66.1829 24.2642 66.5977 23.1171 66.5977 21.5681V20.1877C65.1589 20.3238 63.934 20.4858 62.9295 20.6608Z" fill="#082939"/>
<path d="M83.4607 13.7846C82.7543 13.4346 81.8988 13.2661 80.8878 13.2661C80.0129 13.2661 79.2352 13.4476 78.5482 13.804C77.8677 14.1605 77.5242 14.6465 77.5242 15.2493C77.5242 15.852 77.7316 16.3251 78.1464 16.6621C78.5612 16.9991 79.1639 17.2454 79.9481 17.4009L82.5015 17.9064C83.4218 18.0879 84.2708 18.3018 85.055 18.548C85.8392 18.7943 86.5262 19.1248 87.1094 19.5396C87.6927 19.9544 88.1464 20.4664 88.4704 21.0691C88.7945 21.6718 88.9565 22.4171 88.9565 23.2856C88.9565 24.2253 88.7491 25.0613 88.3343 25.7937C87.9196 26.5195 87.3622 27.1352 86.6558 27.6278C85.9494 28.1203 85.1393 28.4962 84.219 28.7554C83.2987 29.0147 82.3266 29.1443 81.2896 29.1443C80.1684 29.1443 79.1574 28.9952 78.2436 28.6906C77.3363 28.386 76.5456 27.9712 75.8716 27.4463C75.1976 26.9213 74.6532 26.2927 74.2384 25.5604C73.8236 24.8345 73.5579 24.0438 73.4478 23.1883H77.3492C77.5307 24.1281 77.952 24.8539 78.626 25.3594C79.3 25.865 80.2268 26.1177 81.4192 26.1177C82.4756 26.1177 83.3441 25.9103 84.0245 25.4955C84.705 25.0808 85.0485 24.504 85.0485 23.7651C85.0485 23.0263 84.7504 22.469 84.1542 22.0996C83.5579 21.7301 82.8126 21.458 81.9183 21.2765L79.1963 20.7386C78.4315 20.583 77.7251 20.3756 77.0576 20.1164C76.3966 19.8572 75.8198 19.5202 75.3272 19.1054C74.8347 18.6906 74.4458 18.1851 74.1671 17.5953C73.8885 16.9991 73.7459 16.2862 73.7459 15.4567C73.7459 14.6465 73.9468 13.9272 74.3486 13.2856C74.7504 12.644 75.2883 12.0996 75.9623 11.6394C76.6363 11.1793 77.414 10.8293 78.3019 10.583C79.1898 10.3368 80.1231 10.2136 81.1082 10.2136C81.9831 10.2136 82.8321 10.3173 83.6616 10.5312C84.4912 10.7451 85.243 11.0756 85.917 11.5228C86.591 11.9699 87.1613 12.5338 87.6344 13.2078C88.1075 13.8818 88.4315 14.666 88.6065 15.5604H84.8411C84.6273 14.7178 84.1671 14.1346 83.4607 13.7846Z" fill="#082939"/>
<path d="M96.3708 13.9403V24.9708H100V28.7038H95.3533C93.7006 28.7038 92.3656 27.3622 92.3656 25.7161V13.9403H89.7603V10.5379H92.3656V6.62988H96.3708V10.5379H100V13.9403H96.3708Z" fill="#082939"/>
</svg>
